<svg width="13" height="9" viewBox="0 0 13 9" fill="none" xmlns="http://www.w3.org/2000/svg">
<g clip-path="url(#clip0_176_150)">
<path d="M2.01 0H0V2.01H2.01V0Z" fill="#FFF414"/>
<path d="M2.01 2.00977H0V4.01977H2.01V2.00977Z" fill="#FFF414"/>
<path d="M2.01 4.00977H0V6.01977H2.01V4.00977Z" fill="#FFF414"/>
<path d="M4.02001 6.02002H2.01001V8.03002H4.02001V6.02002Z" fill="#FFF414"/>
<path d="M10.04 0H8.03003V2.01H10.04V0Z" fill="#FFF414"/>
<path d="M8.03002 2.00977H6.02002V4.01977H8.03002V2.00977Z" fill="#FFF414"/>
<path d="M8.03002 4.00977H6.02002V6.01977H8.03002V4.00977Z" fill="#FFF414"/>
<path d="M12.04 0H10.03V2.01H12.04V0Z" fill="#FFF414"/>
<path d="M12.04 4.00977H10.03V6.01977H12.04V4.00977Z" fill="#FFF414"/>
<path d="M10.04 6.02002H8.03003V8.03002H10.04V6.02002Z" fill="#FFF414"/>
</g>
<defs>
<clipPath id="clip0_176_150">
<rect width="12.04" height="8.03" fill="white"/>
</clipPath>
</defs>
</svg>
