<svg width="100" height="12" viewBox="0 0 100 12" fill="none" xmlns="http://www.w3.org/2000/svg">
<g clip-path="url(#clip0_46_249)">
<path d="M3.03488 0H0V3.00374H3.03488V0Z" fill="#2F2F2F"/>
<path d="M3.03488 3.00373H0V6.00747H3.03488V3.00373Z" fill="#2F2F2F"/>
<path d="M3.03488 5.99253H0V8.99626H3.03488V5.99253Z" fill="#2F2F2F"/>
<path d="M6.06979 8.99627H3.03491V12H6.06979V8.99627Z" fill="#2F2F2F"/>
<path d="M33.3383 0H30.3035V3.00374H33.3383V0Z" fill="#2F2F2F"/>
<path d="M30.3034 3.00373H27.2686V6.00747H30.3034V3.00373Z" fill="#2F2F2F"/>
<path d="M33.3383 5.99253H30.3035V8.99626H33.3383V5.99253Z" fill="#2F2F2F"/>
<path d="M30.3034 8.99627H27.2686V12H30.3034V8.99627Z" fill="#2F2F2F"/>
<path d="M24.2489 0H21.214V3.00374H24.2489V0Z" fill="#2F2F2F"/>
<path d="M24.2489 5.99253H21.214V8.99626H24.2489V5.99253Z" fill="#2F2F2F"/>
<path d="M24.2489 8.99627H21.214V12H24.2489V8.99627Z" fill="#2F2F2F"/>
<path d="M12.1244 0H9.08948V3.00374H12.1244V0Z" fill="#2F2F2F"/>
<path d="M12.1244 3.00373H9.08948V6.00747H12.1244V3.00373Z" fill="#2F2F2F"/>
<path d="M12.1244 5.99253H9.08948V8.99626H12.1244V5.99253Z" fill="#2F2F2F"/>
<path d="M18.179 0H15.1442V3.00374H18.179V0Z" fill="#2F2F2F"/>
<path d="M18.179 3.00373H15.1442V6.00747H18.179V3.00373Z" fill="#2F2F2F"/>
<path d="M18.179 5.99253H15.1442V8.99626H18.179V5.99253Z" fill="#2F2F2F"/>
<path d="M15.1593 8.99627H12.1244V12H15.1593V8.99627Z" fill="#2F2F2F"/>
<path d="M87.8756 0H84.8407V3.00374H87.8756V0Z" fill="#2F2F2F"/>
<path d="M87.8756 5.99253H84.8407V8.99626H87.8756V5.99253Z" fill="#2F2F2F"/>
<path d="M87.8756 8.99627H84.8407V12H87.8756V8.99627Z" fill="#2F2F2F"/>
<path d="M57.5722 12H60.6071V8.99626H57.5722V12Z" fill="#2F2F2F"/>
<path d="M57.5722 8.99627H60.6071V5.99253H57.5722V8.99627Z" fill="#2F2F2F"/>
<path d="M57.5722 5.99253H60.6071V2.98879L57.5722 2.98879V5.99253Z" fill="#2F2F2F"/>
<path d="M51.5025 12H54.5374V8.99626H51.5025V12Z" fill="#2F2F2F"/>
<path d="M51.5025 8.99627H54.5374V5.99253H51.5025V8.99627Z" fill="#2F2F2F"/>
<path d="M54.5373 8.99627H57.5721V5.99253H54.5373V8.99627Z" fill="#2F2F2F"/>
<path d="M51.5025 5.99253H54.5374V2.98879L51.5025 2.98879V5.99253Z" fill="#2F2F2F"/>
<path d="M54.5373 3.00373L57.5721 3.00373V-1.43051e-06L54.5373 -1.43051e-06V3.00373Z" fill="#2F2F2F"/>
<path d="M96.9651 12H100V8.99626H96.9651V12Z" fill="#2F2F2F"/>
<path d="M96.9651 8.99627H100V5.99253H96.9651V8.99627Z" fill="#2F2F2F"/>
<path d="M96.9651 5.99253H100V2.98879L96.9651 2.98879V5.99253Z" fill="#2F2F2F"/>
<path d="M90.8954 12H93.9303V8.99626H90.8954V12Z" fill="#2F2F2F"/>
<path d="M90.8954 8.99627H93.9303V5.99253H90.8954V8.99627Z" fill="#2F2F2F"/>
<path d="M93.9302 8.99627H96.9651V5.99253H93.9302V8.99627Z" fill="#2F2F2F"/>
<path d="M90.8954 5.99253H93.9303V2.98879L90.8954 2.98879V5.99253Z" fill="#2F2F2F"/>
<path d="M93.9302 3.00373L96.9651 3.00373V-1.43051e-06L93.9302 -1.43051e-06V3.00373Z" fill="#2F2F2F"/>
<path d="M69.6814 12H72.7163V8.99626H69.6814V12Z" fill="#2F2F2F"/>
<path d="M69.6814 5.99253H72.7163V2.98879L69.6814 2.98879V5.99253Z" fill="#2F2F2F"/>
<path d="M63.6419 12H66.6768V8.99626H63.6419V12Z" fill="#2F2F2F"/>
<path d="M63.6419 8.99627H66.6768V5.99253H63.6419V8.99627Z" fill="#2F2F2F"/>
<path d="M66.6617 8.99627H69.6965V5.99253H66.6617V8.99627Z" fill="#2F2F2F"/>
<path d="M63.6419 5.99253H66.6768V2.98879L63.6419 2.98879V5.99253Z" fill="#2F2F2F"/>
<path d="M66.6617 3.00373L69.6965 3.00373V-1.43051e-06L66.6617 -1.43051e-06V3.00373Z" fill="#2F2F2F"/>
<path d="M63.6419 3.00373L66.6768 3.00373V-1.43051e-06L63.6419 -1.43051e-06V3.00373Z" fill="#2F2F2F"/>
<path d="M45.4629 0H42.428V3.00374H45.4629V0Z" fill="#2F2F2F"/>
<path d="M42.4279 3.00373H39.3931V6.00747H42.4279V3.00373Z" fill="#2F2F2F"/>
<path d="M42.4279 5.99253H39.3931V8.99626H42.4279V5.99253Z" fill="#2F2F2F"/>
<path d="M48.4826 0H45.4478V3.00374H48.4826V0Z" fill="#2F2F2F"/>
<path d="M48.4826 5.99253H45.4478V8.99626H48.4826V5.99253Z" fill="#2F2F2F"/>
<path d="M45.4629 8.99627H42.428V12H45.4629V8.99627Z" fill="#2F2F2F"/>
<path d="M81.821 0H78.7861V3.00374H81.821V0Z" fill="#2F2F2F"/>
<path d="M78.7861 3.00373H75.7512V6.00747H78.7861V3.00373Z" fill="#2F2F2F"/>
<path d="M78.7861 5.99253H75.7512V8.99626H78.7861V5.99253Z" fill="#2F2F2F"/>
<path d="M81.821 8.99627H78.7861V12H81.821V8.99627Z" fill="#2F2F2F"/>
</g>
<defs>
<clipPath id="clip0_46_249">
<rect width="100" height="12" fill="white"/>
</clipPath>
</defs>
</svg>
